<?xml version="1.0" encoding="UTF-8"?>
<svg width="700pt" height="700pt" version="1.1" viewBox="0 0 700 700" xmlns="http://www.w3.org/2000/svg">
 <path d="m522.94 16.469h-345.88c-49.906 0-90.59 40.684-90.59 90.59v49.41h527.06v-49.41c0.003906-49.906-40.68-90.59-90.586-90.59zm-320.19 91.578c-4.6133 4.6133-10.871 7.2461-17.461 7.2461-6.4219 0-12.848-2.6328-17.457-7.2461-4.6133-4.4453-7.2461-10.871-7.2461-17.457 0-6.4219 2.6367-12.848 7.2461-17.457 9.2227-9.0586 25.695-9.0586 34.918 0 4.6094 4.6094 7.2461 11.031 7.2461 17.457 0 6.5859-2.6367 12.844-7.2461 17.457zm74.117 0c-4.6133 4.6133-10.871 7.2461-17.461 7.2461s-12.848-2.6367-17.457-7.2461c-4.6133-4.6133-7.2461-10.871-7.2461-17.457 0-6.4219 2.6367-12.848 7.2461-17.457 9.2227-9.2227 25.695-9.0586 34.918 0 4.6094 4.6094 7.2461 11.031 7.2461 17.457 0 6.5859-2.6367 13.012-7.2461 17.457zm237.84 7.2461h-115.29c-13.672 0-24.707-11.035-24.707-24.707 0-13.504 11.035-24.703 24.703-24.703h115.29c13.672 0 24.707 11.199 24.707 24.707 0 13.668-11.035 24.703-24.703 24.703zm-428.24 90.59v247.06c0 50.07 40.684 90.59 90.59 90.59h345.88c49.906 0 90.59-40.52 90.59-90.59v-247.06zm182.17 213.13c9.7188 9.7188 9.7188 25.363 0 34.918-4.7773 4.9414-11.203 7.2461-17.461 7.2461-6.2578 0-12.684-2.3047-17.457-7.2461l-65.883-65.883c-9.7188-9.5547-9.7188-25.199 0-34.918l65.883-65.883c9.7188-9.5547 25.199-9.5547 34.918 0 9.7188 9.7188 9.7188 25.363 0 34.918l-48.426 48.426zm137.69-130.78-65.883 189.41c-3.625 10.211-13.176 16.469-23.387 16.469-2.6367 0-5.4336-0.32812-8.0703-1.3164-13.012-4.4453-19.766-18.613-15.316-31.457l65.883-189.41c4.6133-12.848 18.613-19.602 31.457-15.152 13.012 4.4453 19.766 18.445 15.316 31.457zm125.84 99.812-65.883 65.883c-4.7734 4.9414-11.199 7.2461-17.457 7.2461-6.2578 0-12.684-2.3047-17.457-7.2461-9.7188-9.5547-9.7188-25.199 0-34.918l48.422-48.422-48.422-48.422c-9.7188-9.5547-9.7188-25.199 0-34.918 9.7188-9.5547 25.199-9.5547 34.918 0l65.883 65.883c9.7148 9.7148 9.7148 25.359-0.003907 34.914z"/>
</svg>
