<?xml version="1.0" encoding="UTF-8"?>
<svg width="700pt" height="700pt" version="1.1" viewBox="0 0 700 700" xmlns="http://www.w3.org/2000/svg">
 <g>
  <path d="m316.51 271.82h53.367c18.09 0 32.816-14.727 32.816-32.816 0-18.031-14.727-32.816-32.816-32.816h-53.367z"/>
  <path d="m369.88 288.29h-53.367v65.574h66.25c18.09 0 32.762-14.727 32.762-32.816-0.003907-18.086-14.676-32.758-32.762-32.758z"/>
  <path d="m350 46.09c-128.97 0-233.91 104.95-233.91 233.97 0 129.02 104.94 233.91 233.91 233.91 129.02 0 233.97-104.89 233.97-233.91 0-129.03-104.95-233.97-233.97-233.97zm0 76.438c-7.3359 0-14.785 0.50391-22.121 1.5117l-2.2383-16.297c8.1211-1.1172 16.238-1.6797 24.359-1.6797 95.984 0 173.99 78.062 173.99 173.99l-16.465 1.2344 0.054687-1.625c0.003907-86.52-70.672-157.14-157.58-157.14zm-157.47 156.91v0.61719c0 86.855 70.672 157.53 157.53 157.53 7.2227 0 14.449-0.50391 21.559-1.457l2.1836 16.297c-7.8945 1.0625-15.789 1.5664-23.797 1.5664-95.871 0-173.94-78.062-173.94-173.94zm133.79-89.715h14.84v-21.949h16.465v21.953h12.32c27.16 0 49.281 22.176 49.281 49.281 0 14.727-6.4961 27.887-16.801 36.961 17.473 7.6172 29.625 24.977 29.625 45.137 0 27.16-22.176 49.281-49.281 49.281l-25.145-0.007813v21.953h-16.465v-22.008h-24.641v21.953h-16.406v-21.953h-23.746v-16.465h23.801v-147.67h-23.801v-16.465h23.801v-21.949h16.406v21.953z"/>
 </g>
</svg>
